<svg fill="#000000" xmlns="http://www.w3.org/2000/svg" viewBox="0 0 24 24" width="24px" height="24px"><path d="M21 7h-6v2.25l2 1.16 4-2.32v1.6L17 12l-2-1.155V15h1.35c.563-1.179 1.756-2 3.15-2 .976 0 1.857.401 2.492 1.046C21.993 14.029 22 14.017 22 14V8C22 7.4 21.6 7 21 7zM7.541 9.506c-.566 0-1.019.224-1.349.682s-.504 1.069-.504 1.822c0 .773.175 1.374.504 1.822.329.448.762.672 1.307.672.556 0 .998-.224 1.318-.651.329-.438.494-1.038.494-1.812 0-.794-.165-1.425-.474-1.863C8.519 9.73 8.087 9.506 7.541 9.506z"/><path d="M2 4v16l12 2V2L2 4zM10.022 14.891C9.374 15.634 8.519 16 7.469 16c-1.029 0-1.863-.356-2.501-1.079C4.319 14.198 4 13.262 4 12.102 4 10.88 4.319 9.893 4.978 9.14 5.637 8.387 6.501 8 7.582 8c1.019 0 1.843.366 2.481 1.089C10.691 9.812 11 10.768 11 11.949 11 13.16 10.681 14.148 10.022 14.891zM19.5 14c-1.381 0-2.5 1.119-2.5 2.5 0 1.381 1.119 2.5 2.5 2.5s2.5-1.119 2.5-2.5C22 15.119 20.881 14 19.5 14zM21 17h-1-1v-1-1h1v1h1V17z"/></svg>